<svg xmlns="http://www.w3.org/2000/svg" width="272" height="60" viewBox="0 0 272 60" fill="none">
  <rect x="0.5" y="0.5" width="271" height="59" rx="30" fill="#17171c" stroke="rgba(255,255,255,0.09)"/>
  <g transform="translate(24,4.39) scale(1.331)" stroke-width="3.46" stroke-linecap="round">
    <path d="M5 4 C2 9, 8 13, 5 18 C3 22, 6 24, 5 26" stroke="#8b95a7"/>
    <path d="M12 4 C15 9, 9 13, 12 18 C14 22, 10 25, 12 26" stroke="#f4b740"/>
    <path d="M19 4 C16 8, 22 12, 19 17 C17 21, 21 24, 19 26" stroke="#3ddc84"/>
    <path d="M26 4 C29 9, 23 14, 26 19 C28 23, 24 25, 26 26" stroke="#b06a7a"/>
  </g>
  <g transform="translate(68,39) scale(0.052,-0.052)">
    <path d="M61 -233Q57 -233 49.5 -233.5Q42 -234 37 -225Q33 -220 25.0 -205.5Q17 -191 22 -165Q27 -148 30.0 -131.5Q33 -115 33 -107Q33 -103 35.5 -91.5Q38 -80 38 -75Q43 -67 46.0 -53.0Q49 -39 49 -28Q49 -16 61 -6Q61 2 64.5 14.0Q68 26 68 30Q71 44 81.5 79.5Q92 115 107.5 160.0Q123 205 138.0 248.0Q153 291 165 321Q177 349 185.0 373.0Q193 397 193 407Q193 411 195.0 413.5Q197 416 204 424Q214 434 230.5 431.5Q247 429 258 421Q266 408 269.5 397.5Q273 387 269 365Q269 350 262.0 337.5Q255 325 249.5 317.5Q244 310 246 311Q290 338 325.5 340.5Q361 343 385.5 328.5Q410 314 423.0 289.0Q436 264 436 235Q436 223 428.0 203.0Q420 183 410.0 165.5Q400 148 394 142Q390 142 386.0 135.5Q382 129 378 121Q370 111 351.5 98.5Q333 86 314.0 78.5Q295 71 287 74Q287 74 284.5 72.0Q282 70 282.0 65.25Q282.0 63.35 268.0 57.175Q254 51 235.0 46.0Q216 41 200 41Q179 41 170 49Q168 47 165.5 43.0Q163 39 163 36Q163 30 158.5 17.0Q154 4 148.0 -6.5Q142 -17 137 -17Q137 -17 135.0 -20.0Q133 -23 137 -28Q137 -28 136.5 -39.5Q136 -51 131 -59Q131 -67 128.0 -83.0Q125 -99 121 -107Q121 -119 117.5 -130.5Q114 -142 110 -142Q106 -143 105.0 -154.5Q104 -166 104 -171Q103 -196 88.0 -214.5Q73 -233 61 -233ZM189 117Q197 117 218.0 124.0Q239 131 262.0 141.5Q285 152 298 163Q324 186 338.5 208.0Q353 230 336 257Q328 271 310.42391304347825 268.5Q292.8478260869565 266.0 271.92391304347825 252.0Q251 238 229 217Q217 204 207.0 187.0Q197 170 190.5 154.0Q184 138 183.0 127.5Q182 117 189 117Z" fill="#f4f4f5"/>
    <path d="M502 21Q498 29 484.5 37.0Q471 45 471 49Q471 53 466.5 61.5Q462 70 458 74Q453 80 461.0 103.5Q469 127 485.0 161.0Q501 195 520 230Q528 238 536.0 251.0Q544 264 548 268Q548 272 551.0 275.5Q554 279 558 279L566 295Q568 299 578.3085106382979 311.0Q588.6170212765958 323.0 603.8085106382979 337.5Q619 352 634.375 365.0909090909091Q649.75 378.1818181818182 660 384Q681 398 703.5 397.0Q726 396 742 383Q745 380 755.5 371.0Q766 362 779.5 351.0Q793 340 803 331L840 298L822.5806451612902 248.0Q810 208 816.25 178.0Q822.5 148.0 835 126Q840 115 848.5 109.0Q857 103 871 101Q879 100 886.0 95.0Q893 90 893 79Q893 55 884.5 44.5Q876 34 866 32Q833 28 803.0 39.0Q773 50 749 96Q745 102 738.5 118.5Q732 135 731 140Q727 135 720.5 127.5Q714 120 708 114Q637 42 586.2518248175182 20.5Q535.5036496350365 -1.0 502 21ZM557 104Q564 103 579.0 111.5Q594 120 619 140Q653 169 675.0 188.0Q697 207 718 237L740 273Q730 296 722.0 303.0Q714 310 706 310Q693 310 675.0 293.5Q657 277 634.5 245.5Q612 214 584 167Q571 145 564.0 124.5Q557 104 557 104Z" fill="#f4f4f5"/>
    <path d="M995 -1Q984 1 971.0 12.5Q958 24 947.5 38.5Q937 53 934 63Q934 65 931.5 68.0Q929 71 929 71Q925 74 924.5 97.5Q924 121 927.0 150.0Q930 179 934 196Q939 212 949.0 239.5Q959 267 966 289L993 347L953 358Q946 360 941.5 366.0Q937 372 937 376Q937 384 946.0 399.0Q955 414 959 414Q964 413 977.5 413.0Q991 413 1004.0 414.0Q1017 415 1020 416Q1024 418 1028.0 421.5Q1032 425 1034 432Q1039 443 1043.0 449.0Q1047 455 1054 467Q1061 480 1065.5 489.0Q1070 498 1080 514Q1085 521 1091.0 531.0Q1097 541 1106 548Q1115 556 1135.5 559.5Q1156 563 1171 550Q1179 540 1180.0 531.0Q1181 522 1172 508Q1164 491 1153.5 477.5Q1143 464 1134 447Q1118 425 1128.0 422.0Q1138 419 1184 426Q1213 431 1226.0 420.0Q1239 409 1241 392Q1244 368 1236.0 363.0Q1228 358 1190 358Q1166 354 1149.0 353.5Q1132 353 1124 353Q1111 352 1107.0 352.0Q1103 352 1095 350Q1087 348 1083.5 343.5Q1080 339 1076 331Q1072 327 1064.0 310.0Q1056 293 1044 273Q1030 231 1020.5 192.5Q1011 154 1004 116Q1001 97 1005.5 88.5Q1010 80 1031 78Q1042 77 1063.0 78.5Q1084 80 1098 84Q1109 89 1121.0 94.5Q1133 100 1143 106Q1152 111 1161.0 116.5Q1170 122 1170 122Q1175 130 1184.5 119.5Q1194 109 1198 97Q1198 85 1193.0 68.5Q1188 52 1156 34Q1111 6 1066.0 0.0Q1021 -6 995 -1Z" fill="#f4f4f5"/>
    <path d="M1326 -1Q1315 1 1302.0 12.5Q1289 24 1278.5 38.5Q1268 53 1265 63Q1265 65 1262.5 68.0Q1260 71 1260 71Q1256 74 1255.5 97.5Q1255 121 1258.0 150.0Q1261 179 1265 196Q1270 212 1280.0 239.5Q1290 267 1297 289L1324 347L1284 358Q1277 360 1272.5 366.0Q1268 372 1268 376Q1268 384 1277.0 399.0Q1286 414 1290 414Q1295 413 1308.5 413.0Q1322 413 1335.0 414.0Q1348 415 1351 416Q1355 418 1359.0 421.5Q1363 425 1365 432Q1370 443 1374.0 449.0Q1378 455 1385 467Q1392 480 1396.5 489.0Q1401 498 1411 514Q1416 521 1422.0 531.0Q1428 541 1437 548Q1446 556 1466.5 559.5Q1487 563 1502 550Q1510 540 1511.0 531.0Q1512 522 1503 508Q1495 491 1484.5 477.5Q1474 464 1465 447Q1449 425 1459.0 422.0Q1469 419 1515 426Q1544 431 1557.0 420.0Q1570 409 1572 392Q1575 368 1567.0 363.0Q1559 358 1521 358Q1497 354 1480.0 353.5Q1463 353 1455 353Q1442 352 1438.0 352.0Q1434 352 1426 350Q1418 348 1414.5 343.5Q1411 339 1407 331Q1403 327 1395.0 310.0Q1387 293 1375 273Q1361 231 1351.5 192.5Q1342 154 1335 116Q1332 97 1336.5 88.5Q1341 80 1362 78Q1373 77 1394.0 78.5Q1415 80 1429 84Q1440 89 1452.0 94.5Q1464 100 1474 106Q1483 111 1492.0 116.5Q1501 122 1501 122Q1506 130 1515.5 119.5Q1525 109 1529 97Q1529 85 1524.0 68.5Q1519 52 1487 34Q1442 6 1397.0 0.0Q1352 -6 1326 -1Z" fill="#f4f4f5"/>
    <path d="M1779 20Q1749 3 1715.5 0.5Q1682 -2 1653.0 9.5Q1624 21 1606 44Q1596 57 1587.0 85.5Q1578 114 1584 163Q1590 209 1612.5 256.0Q1635 303 1668.0 339.0Q1701 375 1740 388Q1754 393 1768.5 395.5Q1783 398 1807 396Q1830 393 1848.0 384.5Q1866 376 1874 366Q1890 350 1895.0 335.0Q1900 320 1899 306Q1894 274 1870.5 237.0Q1847 200 1805 182Q1788 175 1765.0 173.0Q1742 171 1702 179Q1678 184 1670.5 174.0Q1663 164 1664 135Q1666 117 1672.5 103.5Q1679 90 1697 85Q1720 81 1730.0 84.5Q1740 88 1755 95Q1763 100 1770.5 106.0Q1778 112 1785.5 118.0Q1793 124 1798 127Q1803 131 1808.0 132.0Q1813 133 1818 133Q1829 132 1839.0 121.0Q1849 110 1852 100Q1852 92 1842.0 77.5Q1832 63 1815.5 47.5Q1799 32 1779 20ZM1766 243Q1773 246 1786.5 257.0Q1800 268 1811.0 280.5Q1822 293 1822 300Q1822 311 1807.5 319.0Q1793 327 1770 322Q1762 320 1751.0 311.0Q1740 302 1729.0 290.5Q1718 279 1710.0 268.5Q1702 258 1699 252Q1703 247 1715.0 244.0Q1727 241 1741.5 241.0Q1756 241 1766 243Z" fill="#f4f4f5"/>
    <path d="M1939 27Q1930 34 1919.5 45.0Q1909 56 1912 76Q1915 104 1920.0 125.5Q1925 147 1932 175Q1934 187 1942.2872340425533 216.0Q1950.5744680851064 245.0 1962.7872340425533 279.0Q1975 313 1988.0 343.5Q2001 374 2011 389Q2022 399 2043.5 399.0Q2065 399 2073 391Q2084 382 2080.0 359.5Q2076 337 2052 290Q2047 278 2039.5 264.5Q2032 251 2029.0 242.5Q2026 234 2031 235Q2037 246 2053.0 260.5Q2069 275 2087.0 289.0Q2105 303 2121.0 314.0Q2137 325 2143 328Q2151 333 2161.5 336.5Q2172 340 2176 342Q2199 353 2226.5 350.5Q2254 348 2260 333Q2261 325 2266.5 321.0Q2272 317 2272 317Q2276 317 2276.5 314.0Q2277 311 2277 311Q2277 304 2263.5 291.0Q2250 278 2234 277Q2221 276 2211.0 272.0Q2201 268 2187 262Q2149 240 2118.5 223.0Q2088 206 2056 171Q2049 163 2041.0 156.0Q2033 149 2025 136Q2020 131 2015.0 114.0Q2010 97 2006.5 81.5Q2003 66 2003 63Q2003 63 2000.0 53.5Q1997 44 1990 35Q1978 19 1966.5 15.0Q1955 11 1939 27Z" fill="#f4f4f5"/>
    <path d="M2623 24Q2601 26 2586.5 33.5Q2572 41 2563 64Q2559 80 2559.5 97.5Q2560 115 2562.0 131.5Q2564 148 2564 160Q2564 162 2564.0 168.0Q2564 174 2564 179Q2562 194 2556.5 197.5Q2551 201 2538 196Q2517 186 2492.5 169.5Q2468 153 2441.5 131.5Q2415 110 2387 86Q2365 62 2354.5 47.0Q2344 32 2333 32Q2325 28 2316.0 34.0Q2307 40 2297 48Q2290 56 2280.5 68.5Q2271 81 2269 85Q2269 101 2271.5 114.0Q2274 127 2279.5 141.0Q2285 155 2293 173Q2297 180 2300.5 187.5Q2304 195 2309 204Q2313 218 2320.5 236.0Q2328 254 2335 270Q2346 296 2352.0 315.0Q2358 334 2362 356Q2361 358 2363.0 362.0Q2365 366 2369 367H2370H2371Q2378 372 2397.5 368.5Q2417 365 2427 357Q2448 339 2447.0 310.0Q2446 281 2417 234Q2410 218 2402.5 204.5Q2395 191 2395 186Q2395 186 2403.0 192.0Q2411 198 2422.0 206.5Q2433 215 2441 220Q2446 225 2463.0 238.5Q2480 252 2500.0 267.0Q2520 282 2532 290Q2543 298 2560.0 306.5Q2577 315 2581 315Q2591 315 2605.5 308.0Q2620 301 2632.5 291.5Q2645 282 2647 274Q2647 270 2646.0 263.5Q2645 257 2645 252Q2644 236 2644.5 213.5Q2645 191 2645.0 168.5Q2645 146 2641 128Q2641 128 2642.0 126.5Q2643 125 2644 122Q2643 121 2643.5 118.5Q2644 116 2644 116Q2646 109 2648.5 102.0Q2651 95 2655.0 86.5Q2659 78 2664 65Q2663 52 2649.5 39.5Q2636 27 2623 24Z" fill="#f4f4f5"/>
    <path d="M2742 17Q2734 25 2730.5 41.0Q2727 57 2728.0 72.5Q2729 88 2733 96Q2733 104 2735.5 108.5Q2738 113 2737 117Q2736 121 2739.0 131.0Q2742 141 2745 150Q2752 166 2761.0 191.5Q2770 217 2779.0 243.5Q2788 270 2794.0 289.5Q2800 309 2801 313Q2801 325 2817 326Q2829 330 2846.0 316.0Q2863 302 2873 286Q2881 278 2879.0 265.0Q2877 252 2866 228Q2862 220 2856.5 201.5Q2851 183 2849 171Q2845 163 2839.5 148.5Q2834 134 2830 121Q2828 116 2826.0 102.5Q2824 89 2821.0 75.0Q2818 61 2813 53Q2804 12 2781.5 5.0Q2759 -2 2742 17ZM2850 418Q2839 426 2833.5 437.5Q2828 449 2827.5 458.0Q2827 467 2829 469Q2839 480 2846.5 498.0Q2854 516 2863 531Q2865 534 2868.5 539.5Q2872 545 2876 546Q2888 554 2909.5 545.0Q2931 536 2941 520Q2950 501 2946.5 481.0Q2943 461 2925 439Q2910 419 2887.0 413.5Q2864 408 2850 418Z" fill="#f4b740"/>
    <path d="M3006 -1Q2995 1 2982.0 12.5Q2969 24 2958.5 38.5Q2948 53 2945 63Q2945 65 2942.5 68.0Q2940 71 2940 71Q2936 74 2935.5 97.5Q2935 121 2938.0 150.0Q2941 179 2945 196Q2950 212 2960.0 239.5Q2970 267 2977 289L3004 347L2964 358Q2957 360 2952.5 366.0Q2948 372 2948 376Q2948 384 2957.0 399.0Q2966 414 2970 414Q2975 413 2988.5 413.0Q3002 413 3015.0 414.0Q3028 415 3031 416Q3035 418 3039.0 421.5Q3043 425 3045 432Q3050 443 3054.0 449.0Q3058 455 3065 467Q3072 480 3076.5 489.0Q3081 498 3091 514Q3096 521 3102.0 531.0Q3108 541 3117 548Q3126 556 3146.5 559.5Q3167 563 3182 550Q3190 540 3191.0 531.0Q3192 522 3183 508Q3175 491 3164.5 477.5Q3154 464 3145 447Q3129 425 3139.0 422.0Q3149 419 3195 426Q3224 431 3237.0 420.0Q3250 409 3252 392Q3255 368 3247.0 363.0Q3239 358 3201 358Q3177 354 3160.0 353.5Q3143 353 3135 353Q3122 352 3118.0 352.0Q3114 352 3106 350Q3098 348 3094.5 343.5Q3091 339 3087 331Q3083 327 3075.0 310.0Q3067 293 3055 273Q3041 231 3031.5 192.5Q3022 154 3015 116Q3012 97 3016.5 88.5Q3021 80 3042 78Q3053 77 3074.0 78.5Q3095 80 3109 84Q3120 89 3132.0 94.5Q3144 100 3154 106Q3163 111 3172.0 116.5Q3181 122 3181 122Q3186 130 3195.5 119.5Q3205 109 3209 97Q3209 85 3204.0 68.5Q3199 52 3167 34Q3122 6 3077.0 0.0Q3032 -6 3006 -1Z" fill="#b06a7a"/>
    <path d="M3252 -208Q3216 -215 3183.0 -210.5Q3150 -206 3127.5 -193.0Q3105 -180 3100 -164Q3094 -141 3106.0 -130.0Q3118 -119 3134.5 -117.0Q3151 -115 3156 -121Q3164 -126 3181.5 -136.0Q3199 -146 3225 -141Q3248 -136 3266.0 -119.0Q3284 -102 3298 -83Q3306 -71 3325.0 -40.0Q3344 -9 3364.5 28.5Q3385 66 3399 98Q3402 106 3406.0 117.0Q3410 128 3416 135Q3422 147 3426.5 157.5Q3431 168 3432 172Q3433 177 3441.0 192.0Q3449 207 3456 222Q3461 237 3471.0 266.0Q3481 295 3491 313Q3503 336 3510.5 350.5Q3518 365 3527 368Q3536 375 3544.0 375.0Q3552 375 3563 369Q3575 357 3582.5 345.5Q3590 334 3588.5 317.5Q3587 301 3572 273Q3564 249 3554.5 229.5Q3545 210 3540 204Q3535 192 3528.5 177.5Q3522 163 3517 151Q3499 111 3486.0 86.0Q3473 61 3463.0 40.0Q3453 19 3442 -9Q3419 -46 3397.5 -79.5Q3376 -113 3352 -142Q3342 -151 3323.5 -165.5Q3305 -180 3285.5 -192.5Q3266 -205 3252 -208ZM3377 18Q3362 20 3344.5 38.0Q3327 56 3315.5 76.0Q3304 96 3306 104Q3306 109 3306.0 112.0Q3306 115 3306 115Q3300 115 3296.5 132.5Q3293 150 3291.5 177.0Q3290 204 3290.5 233.0Q3291 262 3293 286Q3297 303 3297.0 323.5Q3297 344 3298 356Q3297 372 3304.5 382.0Q3312 392 3316 395Q3353 411 3370.0 378.0Q3387 345 3382 273Q3380 233 3380.0 196.5Q3380 160 3387.0 134.0Q3394 108 3411 97Q3418 93 3416.0 80.0Q3414 67 3407.0 52.5Q3400 38 3391.5 27.5Q3383 17 3377 18Z" fill="#3ddc84"/>
  </g>
</svg>
