<svg width="1280" height="640" viewBox="0 0 1280 640" fill="none" xmlns="http://www.w3.org/2000/svg" font-family="Ubuntu, Helvetica Neue, Arial, sans-serif">
  <style>@import url('https://fonts.googleapis.com/css2?family=Caveat:wght@700&amp;family=Ubuntu:wght@400;600;700&amp;display=swap');</style>
  <rect width="1280" height="640" fill="#0b0b0e"/>
  <rect x="0" y="636" width="1280" height="4" fill="#f4b740"/>

  <!-- echo mark from viz/logo.svg (source viewBox 30.5..69.5 x 10.5..89.5) -->
  <g transform="translate(115,130) scale(3.8)" stroke-width="6" stroke-linecap="round" stroke-linejoin="round" fill="none">
    <path d="M50.84 22.43 L50.78 22.50 L50.50 22.85 L50.00 23.42 L49.28 24.16 L48.38 25.06 L47.31 26.08 L46.12 27.23 L44.81 28.49 L43.42 29.90 L41.96 31.45 L40.47 33.21 L38.97 35.19 L37.51 37.48 L36.16 40.11 L35.03 43.11 L34.27 46.45 L34.00 50.00 L34.27 53.55 L35.03 56.89 L36.16 59.89 L37.51 62.52 L38.97 64.81 L40.47 66.79 L41.96 68.55 L43.42 70.10 L44.81 71.51 L46.12 72.77 L47.31 73.92 L48.38 74.94 L49.28 75.84 L50.00 76.58 L50.50 77.15 L50.78 77.50 L50.84 77.57" stroke="#3a3a44"/>
    <path d="M52.46 19.78 L53.61 20.87 L54.66 21.90 L55.60 22.86 L56.40 23.74 L57.04 24.52 L57.51 25.17 L57.81 25.66 L57.96 25.97 L58.01 26.09 L57.88 26.22 L57.63 26.65 L57.22 27.25 L56.63 27.99 L55.88 28.83 L54.99 29.77 L53.97 30.78 L52.85 31.85 L51.67 32.99 L50.43 34.18 L49.18 35.45 L47.93 36.79 L46.70 38.23 L45.52 39.78 L44.43 41.49 L43.46 43.37 L42.69 45.43 L42.18 47.66 L42.00 50.00 L42.18 52.34 L42.69 54.57 L43.46 56.63 L44.43 58.51 L45.52 60.22 L46.70 61.77 L47.93 63.21 L49.18 64.55 L50.43 65.82 L51.67 67.01 L52.85 68.15 L53.97 69.22 L54.99 70.23 L55.88 71.17 L56.63 72.01 L57.22 72.75 L57.63 73.35 L57.88 73.78 L57.99 74.03 L58.01 74.10 L57.81 74.34 L57.51 74.83 L57.04 75.48 L56.40 76.26 L55.60 77.14 L54.66 78.10 L53.61 79.13 L52.46 80.22" stroke="#977942"/>
    <path d="M58.00 14.00 L59.17 15.13 L60.32 16.25 L61.42 17.38 L62.44 18.50 L63.37 19.63 L64.18 20.75 L64.86 21.88 L65.39 23.00 L65.76 24.13 L65.96 25.25 L65.99 26.38 L65.85 27.50 L65.53 28.63 L65.06 29.75 L64.43 30.88 L63.66 32.00 L62.77 33.13 L61.77 34.25 L60.70 35.38 L59.56 36.50 L58.39 37.63 L57.22 38.75 L56.06 39.88 L54.94 41.00 L53.89 42.13 L52.92 43.25 L52.07 44.38 L51.35 45.50 L50.77 46.63 L50.34 47.75 L50.09 48.88 L50.00 50.00 L50.09 51.13 L50.34 52.25 L50.77 53.38 L51.35 54.50 L52.07 55.63 L52.92 56.75 L53.89 57.88 L54.94 59.00 L56.06 60.13 L57.22 61.25 L58.39 62.38 L59.56 63.50 L60.70 64.63 L61.77 65.75 L62.77 66.88 L63.66 68.00 L64.43 69.13 L65.06 70.25 L65.53 71.38 L65.85 72.50 L65.99 73.63 L65.96 74.75 L65.76 75.88 L65.39 77.00 L64.86 78.13 L64.18 79.25 L63.37 80.38 L62.44 81.50 L61.42 82.63 L60.32 83.75 L59.17 84.88 L58.00 86.00" stroke="#f4b740"/>
  </g>

  <text x="588" y="285" fill="#f4f4f5" font-size="150" font-weight="700" font-family="Caveat, cursive">patternitty</text>
  <text x="596" y="356" fill="#f4b740" font-size="34" font-weight="600">You're lazy. That's the feature.</text>
  <text x="596" y="428" fill="#a1a1aa" font-size="27">DRY for your preferences. Scream at your agent</text>
  <text x="596" y="472" fill="#a1a1aa" font-size="27">once. It does the nagging from then on.</text>
</svg>
